HIERARCHY
ROOT Hips
{
  OFFSET 0 89.5177 0.535
  CHANNELS 6 Xposition Yposition Zposition Zrotation Xrotation Yrotation
  JOINT Spine
  {
    OFFSET 12.0259 -0.162855 1.69034e-005
    CHANNELS 3 Zrotation Xrotation Yrotation
    JOINT Spine1
    {
      OFFSET 15.3169 -0.0121922 0
      CHANNELS 3 Zrotation Xrotation Yrotation
      JOINT Spine2
      {
        OFFSET 15.3176 -0.0121908 0
        CHANNELS 3 Zrotation Xrotation Yrotation
        JOINT Neck
        {
          OFFSET 19.9142 1.56338 0
          CHANNELS 3 Zrotation Xrotation Yrotation
          JOINT Head
          {
            OFFSET 6.92651 0 0
            CHANNELS 3 Zrotation Xrotation Yrotation
            End Site
            {
              OFFSET 20.7666 0 0
            }
          }
          JOINT LeftShoulder
          {
            OFFSET -6.20654 0.708824 7.28219
            CHANNELS 3 Zrotation Xrotation Yrotation
            JOINT LeftArm
            {
              OFFSET 14.108 0 -1.52588e-005
              CHANNELS 3 Zrotation Xrotation Yrotation
              JOINT LeftForeArm
              {
                OFFSET 28.5802 0 0
                CHANNELS 3 Zrotation Xrotation Yrotation
                JOINT LeftHand
                {
                  OFFSET 27.092 0 0
                  CHANNELS 3 Zrotation Xrotation Yrotation
                  End Site
                  {
                    OFFSET 9.55928 -0.186424 0.145352
                  }
                }
              }
            }
          }
          JOINT RightShoulder
          {
            OFFSET -6.20654 0.708866 -7.28218
            CHANNELS 3 Zrotation Xrotation Yrotation
            JOINT RightArm
            {
              OFFSET 14.108 0 1.52588e-005
              CHANNELS 3 Zrotation Xrotation Yrotation
              JOINT RightForeArm
              {
                OFFSET 28.5802 0 0
                CHANNELS 3 Zrotation Xrotation Yrotation
                JOINT RightHand
                {
                  OFFSET 27.092 0 0
                  CHANNELS 3 Zrotation Xrotation Yrotation
                  End Site
                  {
                    OFFSET 9.55929 -0.186417 -0.145354
                  }
                }
              }
            }
          }
        }
      }
    }
  }
  JOINT LeftUpLeg
  {
    OFFSET 0.005 -0.535 8.837
    CHANNELS 3 Zrotation Xrotation Yrotation
    JOINT LeftLeg
    {
      OFFSET 39.9035 0 0
      CHANNELS 3 Zrotation Xrotation Yrotation
      JOINT LeftFoot
      {
        OFFSET 39.6689 0 0
        CHANNELS 3 Zrotation Xrotation Yrotation
        JOINT LeftToe
        {
          OFFSET 10.1624 13.6296 0
          CHANNELS 3 Zrotation Xrotation Yrotation
          End Site
          {
            OFFSET 8.38147 0 0
          }
        }
      }
    }
  }
  JOINT RightUpLeg
  {
    OFFSET 0.005 -0.535 -8.837
    CHANNELS 3 Zrotation Xrotation Yrotation
    JOINT RightLeg
    {
      OFFSET 39.9035 0 0
      CHANNELS 3 Zrotation Xrotation Yrotation
      JOINT RightFoot
      {
        OFFSET 39.6689 0 0
        CHANNELS 3 Zrotation Xrotation Yrotation
        JOINT RightToe
        {
          OFFSET 10.1624 13.6296 0
          CHANNELS 3 Zrotation Xrotation Yrotation
          End Site
          {
            OFFSET 8.38147 0 0
          }
        }
      }
    }
  }
}
MOTION
Frames:	6
Frame Time:	0.0333333
160.222 88.3695 -165.322 164.764 -85.5723 75.3425 -0.156154 -1.10395 -0.878928 -0.329314 -2.20491 -1.76118 -0.329314 -2.20491 -1.76119 -8.30748e-012 -9.0191e-006 -5.27751e-005 15.5364 -2.47112 1.39684 -177.452 -28.8079 -84.7241 -29.4074 -43.7858 3.7653 -11.3991 -3.18055e-015 -1.59028e-015 -29.1394 -53.573 -32.5333 -178.843 19.7999 86.5893 -33.2043 35.8655 -1.08452 -6.41788 0 1.59028e-015 -64.3135 68.3036 67.3985 -0.353136 10.983 -176.691 -7.39836 1.59028e-015 -1.19271e-015 11.5835 5.43781 -5.3642 90 2.64011e-017 -1.59028e-015 -3.72367 -10.0034 176.06 -12.6386 3.18056e-015 1.59028e-015 13.4538 -2.77714 3.42838 90 2.55927e-020 -1.59028e-015 
160.223 88.3672 -165.316 164.8 -85.5781 75.3855 -0.149572 -1.0918 -0.884731 -0.316069 -2.18069 -1.77262 -0.31607 -2.18069 -1.77263 -8.30828e-012 -9.0191e-006 -5.27751e-005 15.4526 -2.5095 1.41472 -177.428 -28.7818 -84.6702 -29.5085 -43.8755 3.66675 -11.4078 0 -1.59028e-015 -29.1932 -53.5987 -32.5934 -178.811 19.8768 86.5063 -33.2495 35.8852 -1.03957 -6.41641 0 -3.18055e-015 -64.3215 68.3017 67.4072 -0.381983 10.9968 -176.69 -7.45983 -3.18055e-015 -0 11.6115 5.45255 -5.37556 90 -2.17421e-017 -2.38542e-015 -3.74297 -9.97489 176.05 -12.6851 0 -0 13.4756 -2.74739 3.42658 90 1.89102e-020 -0 
160.225 88.3651 -165.305 165.169 -85.5926 75.7596 -0.153285 -1.0944 -0.884447 -0.323489 -2.18584 -1.77124 -0.323489 -2.18584 -1.77125 -8.30748e-012 -9.0191e-006 -5.27751e-005 15.4165 -2.49894 1.3795 -177.416 -28.8178 -84.6516 -29.4834 -43.8285 3.67049 -11.3696 1.27222e-014 -0 -29.1764 -53.5686 -32.5714 -178.827 19.8162 86.5449 -33.134 35.7247 -1.11937 -6.52642 -3.18055e-015 -1.59028e-015 -64.36 68.3363 67.4526 -0.398181 11.0157 -176.694 -7.50124 0 1.98785e-015 11.6285 5.44641 -5.36405 90 8.54153e-017 7.95139e-016 -3.79117 -9.99835 176.035 -12.7574 3.18056e-015 1.19271e-015 13.4985 -2.81291 3.42629 90 4.06451e-019 -0 
160.226 88.3629 -165.304 165.082 -85.5903 75.6837 -0.156945 -1.09427 -0.88365 -0.331041 -2.19648 -1.7689 -0.331041 -2.19648 -1.76891 -8.30828e-012 -9.0191e-006 -5.27751e-005 15.4104 -2.49424 1.39512 -177.422 -28.8026 -84.6605 -29.3907 -43.8683 3.72789 -11.3558 3.18055e-015 -0 -29.2143 -53.5428 -32.6075 -178.831 19.7794 86.5488 -33.0969 35.7016 -1.15569 -6.50351 0 1.59028e-015 -64.3474 68.3417 67.4399 -0.429403 11.0086 -176.698 -7.56137 1.59028e-015 -7.95139e-016 11.6563 5.44632 -5.38417 90 1.2424e-016 -2.38542e-015 -3.82184 -10.0295 176.018 -12.8096 1.59028e-015 7.95139e-016 13.5249 -2.84092 3.42592 90 5.21713e-019 2.38542e-015 
160.227 88.3611 -165.291 165.135 -85.5951 75.7361 -0.15657 -1.09385 -0.882427 -0.330275 -2.19433 -1.76682 -0.330275 -2.19433 -1.76683 -8.30748e-012 -9.0191e-006 -5.27751e-005 15.3811 -2.49415 1.40817 -177.403 -28.803 -84.6226 -29.3634 -43.8668 3.75561 -11.3446 -6.36111e-015 -3.18055e-015 -29.185 -53.5533 -32.5779 -178.834 19.7682 86.5565 -33.0565 35.8413 -1.22511 -6.51814 6.36111e-015 3.18055e-015 -64.3845 68.3171 67.4738 -0.460086 11.0061 -176.688 -7.61209 0 7.95139e-016 11.6738 5.44662 -5.37956 90 1.86361e-017 -7.95139e-016 -3.86667 -10.0481 176.014 -12.8722 -1.59028e-015 -1.19271e-015 13.5421 -2.88036 3.42562 90 -1.57727e-019 -7.95139e-016 
160.228 88.3603 -165.284 165.202 -85.6343 75.8034 -0.146516 -1.09316 -0.880864 -0.309977 -2.18662 -1.76484 -0.309977 -2.18662 -1.76485 -8.30669e-012 -9.0191e-006 -5.27751e-005 15.2675 -2.52473 1.43964 -177.425 -28.8164 -84.6688 -29.2701 -43.8986 3.90462 -11.339 -1.59028e-014 -3.18055e-015 -29.1412 -53.5607 -32.5333 -178.818 19.7795 86.512 -33.0961 35.8717 -1.21554 -6.45576 -3.18055e-015 -1.59028e-015 -64.286 68.2992 67.3687 -0.479809 11.0375 -176.679 -7.71197 -1.59028e-015 -0 11.7177 5.44681 -5.4 90 1.53748e-016 -1.59028e-015 -3.83518 -10.0319 176.022 -12.8881 0 -0 13.5519 -2.86679 3.42518 90 1.14049e-018 -0 
